# xmcd
#
# Track frame offsets:
#	150
#	17556
#	33293
#	47333
#	64064
#	79478
#	94824
#	107001
#	122415
#	139800
#	155092
#	172470
#	189047
#	207710
#	223669
#	242084
#	258651
#	275196
#	304726
#
# Disc length: 4225 seconds
#
# Revision: 1
# Processed by: cddbd v1.4PL0 Copyright (c) Steve Scherf et al.
# Submitted via: audiograbber 1.80
#
DISCID=1b107f13
DTITLE=Various Artist - Hott Country 030
DYEAR=1900
DGENRE=
TTITLE0=Wilkinsons - 26 Cents
TTITLE1=George Strait - True
TTITLE2=Randy Travis - The Hole
TTITLE3=Michael Peterson - When The Bartender Cries
TTITLE4=Mark Nesler - Used To The Pain
TTITLE5=Doug Stone - Gone Out Of My Mind
TTITLE6=Neal McCoy - Love Happens Like That
TTITLE7=Wade Hayes - Hoe Do You Sleep At Night
TTITLE8=Sammy Kershaw - Honky Tonk America
TTITLE9=Steve Wariner - road Trippin'
TTITLE10=Lonestar - Everything's Changed
TTITLE11=Billy Dean - Real Man
TTITLE12=Mavericks - Dance the Night Away
TTITLE13=Brady Seals - I Fell
TTITLE14=Amy Sky - Love Pain The Whole Damm Thing
TTITLE15=Lisa Brokop - How Do I Let Go
TTITLE16=Chris Cummings - Minute And  A Half
TTITLE17=Olivia Newton-John - I Honestly Love You
TTITLE18=Data - Data Track
EXTD=
EXTT0=
EXTT1=
EXTT2=
EXTT3=
EXTT4=
EXTT5=
EXTT6=
EXTT7=
EXTT8=
EXTT9=
EXTT10=
EXTT11=
EXTT12=
EXTT13=
EXTT14=
EXTT15=
EXTT16=
EXTT17=
EXTT18=
PLAYORDER=
